<mxfile host="app.diagrams.net" modified="2023-01-13T04:16:11.424Z" agent="5.0 (Windows NT 10.0; Win64; x64) AppleWebKit/537.36 (KHTML, like Gecko) Chrome/109.0.0.0 Safari/537.36" version="20.8.5" etag="FrxW7APsJwqOzQUCtlni" type="github">
  <diagram id="u6kLTxIuwcRI7XAf0ume" name="Page-1">
    <mxGraphModel dx="1600" dy="807" grid="1" gridSize="10" guides="1" tooltips="1" connect="1" arrows="1" fold="1" page="1" pageScale="1" pageWidth="850" pageHeight="1100" math="0" shadow="0">
      <root>
        <mxCell id="0" />
        <mxCell id="1" parent="0" />
        <mxCell id="0DFrEJIjcRbsmE2w6Yd1-21" style="edgeStyle=orthogonalEdgeStyle;rounded=0;orthogonalLoop=1;jettySize=auto;html=1;exitX=1;exitY=0.5;exitDx=0;exitDy=0;entryX=0;entryY=0.5;entryDx=0;entryDy=0;" edge="1" parent="1" source="0DFrEJIjcRbsmE2w6Yd1-2" target="0DFrEJIjcRbsmE2w6Yd1-6">
          <mxGeometry relative="1" as="geometry" />
        </mxCell>
        <mxCell id="0DFrEJIjcRbsmE2w6Yd1-2" value="Install Metamask" style="rounded=1;whiteSpace=wrap;html=1;absoluteArcSize=1;arcSize=14;strokeWidth=2;" vertex="1" parent="1">
          <mxGeometry x="160" y="400" width="80" height="80" as="geometry" />
        </mxCell>
        <mxCell id="0DFrEJIjcRbsmE2w6Yd1-20" style="edgeStyle=orthogonalEdgeStyle;rounded=0;orthogonalLoop=1;jettySize=auto;html=1;exitX=1;exitY=0.5;exitDx=0;exitDy=0;exitPerimeter=0;entryX=0;entryY=0.5;entryDx=0;entryDy=0;" edge="1" parent="1" source="0DFrEJIjcRbsmE2w6Yd1-4" target="0DFrEJIjcRbsmE2w6Yd1-2">
          <mxGeometry relative="1" as="geometry" />
        </mxCell>
        <mxCell id="0DFrEJIjcRbsmE2w6Yd1-4" value="Start" style="strokeWidth=2;html=1;shape=mxgraph.flowchart.start_2;whiteSpace=wrap;" vertex="1" parent="1">
          <mxGeometry x="40" y="400" width="80" height="80" as="geometry" />
        </mxCell>
        <mxCell id="0DFrEJIjcRbsmE2w6Yd1-22" style="edgeStyle=orthogonalEdgeStyle;rounded=0;orthogonalLoop=1;jettySize=auto;html=1;exitX=1;exitY=0.5;exitDx=0;exitDy=0;" edge="1" parent="1" source="0DFrEJIjcRbsmE2w6Yd1-6" target="0DFrEJIjcRbsmE2w6Yd1-8">
          <mxGeometry relative="1" as="geometry" />
        </mxCell>
        <mxCell id="0DFrEJIjcRbsmE2w6Yd1-6" value="Connect to Scroll L1 Testnet Network" style="rounded=1;whiteSpace=wrap;html=1;absoluteArcSize=1;arcSize=14;strokeWidth=2;" vertex="1" parent="1">
          <mxGeometry x="280" y="400" width="80" height="80" as="geometry" />
        </mxCell>
        <mxCell id="0DFrEJIjcRbsmE2w6Yd1-23" style="edgeStyle=orthogonalEdgeStyle;rounded=0;orthogonalLoop=1;jettySize=auto;html=1;exitX=1;exitY=0.5;exitDx=0;exitDy=0;entryX=0;entryY=0.5;entryDx=0;entryDy=0;" edge="1" parent="1" source="0DFrEJIjcRbsmE2w6Yd1-8" target="0DFrEJIjcRbsmE2w6Yd1-10">
          <mxGeometry relative="1" as="geometry" />
        </mxCell>
        <mxCell id="0DFrEJIjcRbsmE2w6Yd1-8" value="&lt;div&gt;&lt;div&gt;&lt;/div&gt;&lt;/div&gt;&lt;div class=&quot;m-0 flex h-auto w-full flex-grow-0 flex-col justify-center align-middle leading-6 text-blueGray-700&quot;&gt;&lt;div class=&quot;flex items-center&quot;&gt;&lt;div class=&quot;overflow-ellipsis whitespace-pre-line&quot; style=&quot;word-break: break-word;&quot;&gt;Get some Token from Faucet&lt;/div&gt;&lt;/div&gt;&lt;/div&gt;" style="rounded=1;whiteSpace=wrap;html=1;absoluteArcSize=1;arcSize=14;strokeWidth=2;" vertex="1" parent="1">
          <mxGeometry x="400" y="400" width="80" height="80" as="geometry" />
        </mxCell>
        <mxCell id="0DFrEJIjcRbsmE2w6Yd1-24" style="edgeStyle=orthogonalEdgeStyle;rounded=0;orthogonalLoop=1;jettySize=auto;html=1;exitX=1;exitY=0.5;exitDx=0;exitDy=0;entryX=0;entryY=0.5;entryDx=0;entryDy=0;" edge="1" parent="1" source="0DFrEJIjcRbsmE2w6Yd1-10" target="0DFrEJIjcRbsmE2w6Yd1-14">
          <mxGeometry relative="1" as="geometry" />
        </mxCell>
        <mxCell id="0DFrEJIjcRbsmE2w6Yd1-10" value="Bridge TSETH L1 to TSETH L2" style="rounded=1;whiteSpace=wrap;html=1;absoluteArcSize=1;arcSize=14;strokeWidth=2;" vertex="1" parent="1">
          <mxGeometry x="520" y="400" width="80" height="80" as="geometry" />
        </mxCell>
        <mxCell id="0DFrEJIjcRbsmE2w6Yd1-25" style="edgeStyle=orthogonalEdgeStyle;rounded=0;orthogonalLoop=1;jettySize=auto;html=1;exitX=1;exitY=0.5;exitDx=0;exitDy=0;entryX=0;entryY=0.5;entryDx=0;entryDy=0;" edge="1" parent="1" source="0DFrEJIjcRbsmE2w6Yd1-14" target="0DFrEJIjcRbsmE2w6Yd1-16">
          <mxGeometry relative="1" as="geometry" />
        </mxCell>
        <mxCell id="0DFrEJIjcRbsmE2w6Yd1-14" value="&lt;font style=&quot;font-size: 11px;&quot;&gt;Open the Remix IDE after successfully bridging L1 to L2&lt;/font&gt;" style="rounded=1;whiteSpace=wrap;html=1;absoluteArcSize=1;arcSize=14;strokeWidth=2;" vertex="1" parent="1">
          <mxGeometry x="640" y="400" width="80" height="80" as="geometry" />
        </mxCell>
        <mxCell id="0DFrEJIjcRbsmE2w6Yd1-26" style="edgeStyle=orthogonalEdgeStyle;rounded=0;orthogonalLoop=1;jettySize=auto;html=1;exitX=0.5;exitY=1;exitDx=0;exitDy=0;entryX=0.5;entryY=0;entryDx=0;entryDy=0;" edge="1" parent="1" source="0DFrEJIjcRbsmE2w6Yd1-16" target="0DFrEJIjcRbsmE2w6Yd1-18">
          <mxGeometry relative="1" as="geometry" />
        </mxCell>
        <mxCell id="0DFrEJIjcRbsmE2w6Yd1-16" value="&lt;font style=&quot;font-size: 12px;&quot;&gt;Create Smart Contract&lt;/font&gt;" style="rounded=1;whiteSpace=wrap;html=1;absoluteArcSize=1;arcSize=14;strokeWidth=2;" vertex="1" parent="1">
          <mxGeometry x="760" y="400" width="80" height="80" as="geometry" />
        </mxCell>
        <mxCell id="0DFrEJIjcRbsmE2w6Yd1-28" style="edgeStyle=orthogonalEdgeStyle;rounded=0;orthogonalLoop=1;jettySize=auto;html=1;exitX=0;exitY=0.5;exitDx=0;exitDy=0;entryX=1;entryY=0.5;entryDx=0;entryDy=0;fontSize=11;" edge="1" parent="1" source="0DFrEJIjcRbsmE2w6Yd1-18" target="0DFrEJIjcRbsmE2w6Yd1-27">
          <mxGeometry relative="1" as="geometry" />
        </mxCell>
        <mxCell id="0DFrEJIjcRbsmE2w6Yd1-18" value="&lt;font style=&quot;font-size: 12px;&quot;&gt;Deploy&lt;/font&gt;" style="rounded=1;whiteSpace=wrap;html=1;absoluteArcSize=1;arcSize=14;strokeWidth=2;" vertex="1" parent="1">
          <mxGeometry x="760" y="520" width="80" height="80" as="geometry" />
        </mxCell>
        <mxCell id="0DFrEJIjcRbsmE2w6Yd1-19" value="End" style="strokeWidth=2;html=1;shape=mxgraph.flowchart.start_2;whiteSpace=wrap;" vertex="1" parent="1">
          <mxGeometry x="520" y="520" width="80" height="80" as="geometry" />
        </mxCell>
        <mxCell id="0DFrEJIjcRbsmE2w6Yd1-29" style="edgeStyle=orthogonalEdgeStyle;rounded=0;orthogonalLoop=1;jettySize=auto;html=1;exitX=0;exitY=0.5;exitDx=0;exitDy=0;entryX=1;entryY=0.5;entryDx=0;entryDy=0;entryPerimeter=0;fontSize=11;" edge="1" parent="1" source="0DFrEJIjcRbsmE2w6Yd1-27" target="0DFrEJIjcRbsmE2w6Yd1-19">
          <mxGeometry relative="1" as="geometry" />
        </mxCell>
        <mxCell id="0DFrEJIjcRbsmE2w6Yd1-27" value="&lt;font style=&quot;font-size: 12px;&quot;&gt;Minted the token&lt;/font&gt;" style="rounded=1;whiteSpace=wrap;html=1;absoluteArcSize=1;arcSize=14;strokeWidth=2;" vertex="1" parent="1">
          <mxGeometry x="640" y="520" width="80" height="80" as="geometry" />
        </mxCell>
      </root>
    </mxGraphModel>
  </diagram>
</mxfile>
